<mxfile host="65bd71144e">
    <diagram id="YkLL2XfdqUy7iR5e5vpu" name="第 1 页">
        <mxGraphModel dx="2252" dy="1600" grid="1" gridSize="10" guides="1" tooltips="1" connect="1" arrows="1" fold="1" page="1" pageScale="1" pageWidth="3300" pageHeight="4681" math="0" shadow="0">
            <root>
                <mxCell id="0"/>
                <mxCell id="1" parent="0"/>
                <mxCell id="79" value="" style="whiteSpace=wrap;html=1;fillColor=#fff2cc;strokeColor=#d6b656;rounded=1;" vertex="1" parent="1">
                    <mxGeometry x="1320" y="20" width="1100" height="1220" as="geometry"/>
                </mxCell>
                <mxCell id="7" value="方案系统(8010):" style="shape=umlLifeline;perimeter=lifelinePerimeter;whiteSpace=wrap;html=1;container=1;collapsible=0;recursiveResize=0;outlineConnect=0;rounded=1;" vertex="1" parent="1">
                    <mxGeometry x="515" y="50" width="100" height="1150" as="geometry"/>
                </mxCell>
                <mxCell id="26" value="" style="html=1;points=[];perimeter=orthogonalPerimeter;rounded=1;" vertex="1" parent="7">
                    <mxGeometry x="45" y="182" width="10" height="138" as="geometry"/>
                </mxCell>
                <mxCell id="8" value="" style="shape=umlLifeline;participant=umlActor;perimeter=lifelinePerimeter;whiteSpace=wrap;html=1;container=1;collapsible=0;recursiveResize=0;verticalAlign=top;spacingTop=36;outlineConnect=0;rounded=1;" vertex="1" parent="1">
                    <mxGeometry x="215" y="50" width="20" height="1150" as="geometry"/>
                </mxCell>
                <mxCell id="32" value="" style="html=1;points=[];perimeter=orthogonalPerimeter;rounded=1;" vertex="1" parent="8">
                    <mxGeometry x="5" y="362" width="10" height="40" as="geometry"/>
                </mxCell>
                <mxCell id="9" value="产线管理员" style="text;html=1;align=center;verticalAlign=middle;resizable=0;points=[];autosize=1;strokeColor=none;rounded=1;" vertex="1" parent="1">
                    <mxGeometry x="185" y="20" width="80" height="20" as="geometry"/>
                </mxCell>
                <mxCell id="10" value="" style="shape=umlLifeline;participant=umlActor;perimeter=lifelinePerimeter;whiteSpace=wrap;html=1;container=1;collapsible=0;recursiveResize=0;verticalAlign=top;spacingTop=36;outlineConnect=0;rounded=1;" vertex="1" parent="1">
                    <mxGeometry x="365" y="50" width="20" height="1150" as="geometry"/>
                </mxCell>
                <mxCell id="36" value="" style="html=1;points=[];perimeter=orthogonalPerimeter;rounded=1;" vertex="1" parent="10">
                    <mxGeometry x="5" y="442" width="10" height="40" as="geometry"/>
                </mxCell>
                <mxCell id="11" value="产线工人" style="text;html=1;align=center;verticalAlign=middle;resizable=0;points=[];autosize=1;strokeColor=none;rounded=1;" vertex="1" parent="1">
                    <mxGeometry x="345" y="20" width="60" height="20" as="geometry"/>
                </mxCell>
                <mxCell id="12" value="产线管理员系统(3601)" style="shape=umlLifeline;perimeter=lifelinePerimeter;whiteSpace=wrap;html=1;container=1;collapsible=0;recursiveResize=0;outlineConnect=0;rounded=1;" vertex="1" parent="1">
                    <mxGeometry x="910" y="50" width="100" height="1150" as="geometry"/>
                </mxCell>
                <mxCell id="34" value="" style="html=1;points=[];perimeter=orthogonalPerimeter;rounded=1;" vertex="1" parent="12">
                    <mxGeometry x="45" y="362" width="10" height="40" as="geometry"/>
                </mxCell>
                <mxCell id="13" value="产线工人系统(3600)" style="shape=umlLifeline;perimeter=lifelinePerimeter;whiteSpace=wrap;html=1;container=1;collapsible=0;recursiveResize=0;outlineConnect=0;rounded=1;" vertex="1" parent="1">
                    <mxGeometry x="1140" y="50" width="100" height="1110" as="geometry"/>
                </mxCell>
                <mxCell id="38" value="" style="html=1;points=[];perimeter=orthogonalPerimeter;rounded=1;" vertex="1" parent="13">
                    <mxGeometry x="45" y="442" width="10" height="128" as="geometry"/>
                </mxCell>
                <mxCell id="42" value="" style="html=1;points=[];perimeter=orthogonalPerimeter;rounded=1;" vertex="1" parent="13">
                    <mxGeometry x="45" y="680" width="10" height="40" as="geometry"/>
                </mxCell>
                <mxCell id="43" value="&lt;div&gt;订阅:&lt;/div&gt;&lt;div&gt;/dev/detection/{sn}/event/post&lt;/div&gt;&lt;div&gt;/dev/web/{sn}/service/request&lt;/div&gt;&lt;div&gt;发布：&lt;/div&gt;&lt;div&gt;/dev/web/{sn}/service/response&lt;/div&gt;&lt;div&gt;/dev/detection/{sn}/service/request&lt;br&gt;&lt;/div&gt;" style="edgeStyle=orthogonalEdgeStyle;html=1;align=left;spacingLeft=2;endArrow=block;entryX=1;entryY=0;" edge="1" target="42" parent="13">
                    <mxGeometry relative="1" as="geometry">
                        <mxPoint x="50" y="660" as="sourcePoint"/>
                        <Array as="points">
                            <mxPoint x="80" y="660"/>
                        </Array>
                    </mxGeometry>
                </mxCell>
                <mxCell id="14" value="产测引擎管理器" style="shape=umlLifeline;perimeter=lifelinePerimeter;whiteSpace=wrap;html=1;container=1;collapsible=0;recursiveResize=0;outlineConnect=0;rounded=1;" vertex="1" parent="1">
                    <mxGeometry x="1390" y="50" width="100" height="1150" as="geometry"/>
                </mxCell>
                <mxCell id="41" value="" style="html=1;points=[];perimeter=orthogonalPerimeter;rounded=1;" vertex="1" parent="14">
                    <mxGeometry x="45" y="570" width="10" height="50" as="geometry"/>
                </mxCell>
                <mxCell id="54" value="" style="html=1;points=[];perimeter=orthogonalPerimeter;rounded=1;" vertex="1" parent="14">
                    <mxGeometry x="45" y="670" width="10" height="70" as="geometry"/>
                </mxCell>
                <mxCell id="55" value="&lt;div&gt;订阅:&lt;/div&gt;&lt;div&gt;/dev/engine/{sn}/service/request&lt;br&gt;&lt;/div&gt;&lt;div&gt;发布：&lt;/div&gt;&lt;div&gt;/dev/engine/{sn}/event/post&lt;/div&gt;&lt;div&gt;&lt;br&gt;&lt;/div&gt;" style="edgeStyle=orthogonalEdgeStyle;html=1;align=left;spacingLeft=2;endArrow=block;entryX=1;entryY=0;" edge="1" target="54" parent="14">
                    <mxGeometry relative="1" as="geometry">
                        <mxPoint x="50" y="652" as="sourcePoint"/>
                        <Array as="points">
                            <mxPoint x="80" y="652"/>
                        </Array>
                    </mxGeometry>
                </mxCell>
                <mxCell id="15" value="产测节点" style="shape=umlLifeline;perimeter=lifelinePerimeter;whiteSpace=wrap;html=1;container=1;collapsible=0;recursiveResize=0;outlineConnect=0;rounded=1;" vertex="1" parent="1">
                    <mxGeometry x="1635" y="50" width="100" height="1150" as="geometry"/>
                </mxCell>
                <mxCell id="63" value="11. 通过&lt;span style=&quot;text-align: left&quot;&gt;/dev/robot/{sn}/service/request发送服务请求&lt;/span&gt;" style="html=1;verticalAlign=bottom;endArrow=block;" edge="1" parent="15" source="64">
                    <mxGeometry width="80" relative="1" as="geometry">
                        <mxPoint x="60" y="910" as="sourcePoint"/>
                        <mxPoint x="310" y="910" as="targetPoint"/>
                    </mxGeometry>
                </mxCell>
                <mxCell id="64" value="" style="html=1;points=[];perimeter=orthogonalPerimeter;rounded=1;" vertex="1" parent="15">
                    <mxGeometry x="45" y="910" width="10" height="120" as="geometry"/>
                </mxCell>
                <mxCell id="66" value="" style="html=1;points=[];perimeter=orthogonalPerimeter;rounded=1;" vertex="1" parent="15">
                    <mxGeometry x="45" y="1070" width="10" height="40" as="geometry"/>
                </mxCell>
                <mxCell id="67" value="13. 数据校验统计结果" style="edgeStyle=orthogonalEdgeStyle;html=1;align=left;spacingLeft=2;endArrow=block;entryX=1;entryY=0;" edge="1" target="66" parent="15">
                    <mxGeometry relative="1" as="geometry">
                        <mxPoint x="50" y="1050" as="sourcePoint"/>
                        <Array as="points">
                            <mxPoint x="80" y="1050"/>
                        </Array>
                    </mxGeometry>
                </mxCell>
                <mxCell id="16" value="设备" style="shape=umlLifeline;perimeter=lifelinePerimeter;whiteSpace=wrap;html=1;container=1;collapsible=0;recursiveResize=0;outlineConnect=0;rounded=1;" vertex="1" parent="1">
                    <mxGeometry x="1900" y="50" width="100" height="1150" as="geometry"/>
                </mxCell>
                <mxCell id="74" value="" style="html=1;points=[];perimeter=orthogonalPerimeter;rounded=1;" vertex="1" parent="16">
                    <mxGeometry x="45" y="690" width="10" height="40" as="geometry"/>
                </mxCell>
                <mxCell id="75" value="订阅：&lt;br&gt;/dev/robot/{sn}/service/request&lt;br&gt;发布：&lt;br&gt;/dev/robot/{sn}/event/post" style="edgeStyle=orthogonalEdgeStyle;html=1;align=left;spacingLeft=2;endArrow=block;entryX=1;entryY=0;" edge="1" target="74" parent="16">
                    <mxGeometry relative="1" as="geometry">
                        <mxPoint x="55" y="670" as="sourcePoint"/>
                        <Array as="points">
                            <mxPoint x="85" y="670"/>
                        </Array>
                    </mxGeometry>
                </mxCell>
                <mxCell id="18" value="" style="shape=umlLifeline;participant=umlActor;perimeter=lifelinePerimeter;whiteSpace=wrap;html=1;container=1;collapsible=0;recursiveResize=0;verticalAlign=top;spacingTop=36;outlineConnect=0;rounded=1;" vertex="1" parent="1">
                    <mxGeometry x="50" y="50" width="20" height="1150" as="geometry"/>
                </mxCell>
                <mxCell id="24" value="1. 登录、新建项目、产品方案(硬件驱动等配置文件、固件包)、导入产品" style="html=1;verticalAlign=bottom;endArrow=block;" edge="1" parent="18">
                    <mxGeometry width="80" relative="1" as="geometry">
                        <mxPoint x="10" y="182" as="sourcePoint"/>
                        <mxPoint x="514.5" y="182" as="targetPoint"/>
                    </mxGeometry>
                </mxCell>
                <mxCell id="19" value="开发人员" style="text;html=1;align=center;verticalAlign=middle;resizable=0;points=[];autosize=1;strokeColor=none;rounded=1;" vertex="1" parent="1">
                    <mxGeometry x="30" y="20" width="60" height="20" as="geometry"/>
                </mxCell>
                <mxCell id="25" value="2. 配置生产方案并发布" style="html=1;verticalAlign=bottom;endArrow=block;" edge="1" parent="1" target="26">
                    <mxGeometry width="80" relative="1" as="geometry">
                        <mxPoint x="65" y="290" as="sourcePoint"/>
                        <mxPoint x="545" y="290" as="targetPoint"/>
                    </mxGeometry>
                </mxCell>
                <mxCell id="27" value="服务器" style="shape=umlLifeline;perimeter=lifelinePerimeter;whiteSpace=wrap;html=1;container=1;collapsible=0;recursiveResize=0;outlineConnect=0;rounded=1;" vertex="1" parent="1">
                    <mxGeometry x="710" y="50" width="100" height="1150" as="geometry"/>
                </mxCell>
                <mxCell id="29" value="" style="html=1;points=[];perimeter=orthogonalPerimeter;rounded=1;" vertex="1" parent="27">
                    <mxGeometry x="45" y="282" width="10" height="40" as="geometry"/>
                </mxCell>
                <mxCell id="48" value="" style="html=1;points=[];perimeter=orthogonalPerimeter;rounded=1;" vertex="1" parent="27">
                    <mxGeometry x="45" y="95" width="10" height="40" as="geometry"/>
                </mxCell>
                <mxCell id="59" value="获取配置Json文件" style="html=1;verticalAlign=bottom;endArrow=block;" edge="1" parent="27" source="27">
                    <mxGeometry width="80" relative="1" as="geometry">
                        <mxPoint x="105" y="528" as="sourcePoint"/>
                        <mxPoint x="475" y="528" as="targetPoint"/>
                    </mxGeometry>
                </mxCell>
                <mxCell id="28" value="3. 生成产测配置Json文件" style="html=1;verticalAlign=bottom;endArrow=block;" edge="1" parent="1" target="29">
                    <mxGeometry width="80" relative="1" as="geometry">
                        <mxPoint x="570" y="332" as="sourcePoint"/>
                        <mxPoint x="750" y="332" as="targetPoint"/>
                        <Array as="points">
                            <mxPoint x="670" y="332"/>
                        </Array>
                    </mxGeometry>
                </mxCell>
                <mxCell id="30" value="return" style="html=1;verticalAlign=bottom;endArrow=open;dashed=1;endSize=8;entryX=1;entryY=1;entryDx=0;entryDy=0;entryPerimeter=0;" edge="1" parent="1" source="29" target="26">
                    <mxGeometry relative="1" as="geometry">
                        <mxPoint x="730" y="412" as="sourcePoint"/>
                        <mxPoint x="600" y="412" as="targetPoint"/>
                    </mxGeometry>
                </mxCell>
                <mxCell id="31" value="" style="html=1;points=[];perimeter=orthogonalPerimeter;rounded=1;" vertex="1" parent="1">
                    <mxGeometry x="55" y="232" width="10" height="60" as="geometry"/>
                </mxCell>
                <mxCell id="33" value="4. 资源同步" style="html=1;verticalAlign=bottom;endArrow=block;" edge="1" parent="1" target="34">
                    <mxGeometry width="80" relative="1" as="geometry">
                        <mxPoint x="230" y="412" as="sourcePoint"/>
                        <mxPoint x="950" y="412" as="targetPoint"/>
                    </mxGeometry>
                </mxCell>
                <mxCell id="35" value="5. 登录、添加产线、配置产线生产方案、添加工位、添加操作员、添加治具" style="html=1;verticalAlign=bottom;endArrow=block;" edge="1" parent="1">
                    <mxGeometry width="80" relative="1" as="geometry">
                        <mxPoint x="230" y="452" as="sourcePoint"/>
                        <mxPoint x="955.5172413793103" y="452" as="targetPoint"/>
                    </mxGeometry>
                </mxCell>
                <mxCell id="37" value="6. 操作员选择产线工序注册工位、登录" style="html=1;verticalAlign=bottom;endArrow=block;" edge="1" parent="1" target="38">
                    <mxGeometry width="80" relative="1" as="geometry">
                        <mxPoint x="380" y="492" as="sourcePoint"/>
                        <mxPoint x="1170" y="492" as="targetPoint"/>
                    </mxGeometry>
                </mxCell>
                <mxCell id="39" value="7. 输入所需治具编号（可选）、输入设备SN开始检测" style="html=1;verticalAlign=bottom;endArrow=block;" edge="1" parent="1" target="38">
                    <mxGeometry width="80" relative="1" as="geometry">
                        <mxPoint x="380" y="532" as="sourcePoint"/>
                        <mxPoint x="1160" y="532" as="targetPoint"/>
                    </mxGeometry>
                </mxCell>
                <mxCell id="40" value="8. 执行可执行文件&lt;span style=&quot;color: rgb(221 , 17 , 68) ; background-color: transparent ; font-family: , &amp;#34;consolas&amp;#34; , &amp;#34;liberation mono&amp;#34; , &amp;#34;menlo&amp;#34; , &amp;#34;courier&amp;#34; , monospace , sans-serif ; font-size: 11.9px&quot;&gt;detection_manager&lt;br&gt;&lt;/span&gt;启动管理器，根据配置文件调起节点" style="html=1;verticalAlign=bottom;endArrow=block;" edge="1" parent="1" source="38" target="41">
                    <mxGeometry width="80" relative="1" as="geometry">
                        <mxPoint x="1250" y="692" as="sourcePoint"/>
                        <mxPoint x="1275" y="572" as="targetPoint"/>
                    </mxGeometry>
                </mxCell>
                <mxCell id="45" value="" style="html=1;points=[];perimeter=orthogonalPerimeter;rounded=1;" vertex="1" parent="1">
                    <mxGeometry x="55" y="145" width="10" height="40" as="geometry"/>
                </mxCell>
                <mxCell id="46" value="0. 将产测管理器及节点代码打包成可执行文件部署到服务器" style="html=1;verticalAlign=bottom;endArrow=block;" edge="1" parent="1" source="45">
                    <mxGeometry width="80" relative="1" as="geometry">
                        <mxPoint x="120" y="145" as="sourcePoint"/>
                        <mxPoint x="755" y="145" as="targetPoint"/>
                        <Array as="points">
                            <mxPoint x="270" y="145"/>
                            <mxPoint x="600" y="145"/>
                        </Array>
                    </mxGeometry>
                </mxCell>
                <mxCell id="49" value="return" style="html=1;verticalAlign=bottom;endArrow=open;dashed=1;endSize=8;" edge="1" parent="1" target="45">
                    <mxGeometry relative="1" as="geometry">
                        <mxPoint x="750" y="185" as="sourcePoint"/>
                        <mxPoint x="70" y="185" as="targetPoint"/>
                        <Array as="points">
                            <mxPoint x="270" y="185"/>
                        </Array>
                    </mxGeometry>
                </mxCell>
                <mxCell id="52" value="" style="html=1;points=[];perimeter=orthogonalPerimeter;rounded=1;" vertex="1" parent="1">
                    <mxGeometry x="1680" y="820" width="10" height="90" as="geometry"/>
                </mxCell>
                <mxCell id="53" value="&lt;div&gt;订阅:&lt;/div&gt;&lt;div&gt;/dev/robot/{sn}/event/post&lt;/div&gt;&lt;div&gt;/dev/engine/{sn}/event/post&lt;/div&gt;&lt;div&gt;/dev/web/{sn}/event/post&lt;br&gt;&lt;/div&gt;&lt;div&gt;&lt;br&gt;&lt;/div&gt;&lt;div&gt;&lt;div&gt;/dev/robot/{sn}/service/response&lt;/div&gt;&lt;div&gt;/dev/jig/{sn}/service/response&lt;/div&gt;&lt;/div&gt;&lt;div&gt;发布：&lt;/div&gt;&lt;div&gt;/dev/detection/{sn}/event/post&lt;br&gt;&lt;/div&gt;&lt;div&gt;/dev/robot/{sn}/service/request&lt;/div&gt;&lt;div&gt;/dev/jig/{sn}/service/request&lt;/div&gt;" style="edgeStyle=orthogonalEdgeStyle;html=1;align=left;spacingLeft=2;endArrow=block;entryX=1;entryY=0;" edge="1" target="52" parent="1">
                    <mxGeometry relative="1" as="geometry">
                        <mxPoint x="1685" y="800" as="sourcePoint"/>
                        <Array as="points">
                            <mxPoint x="1715" y="800"/>
                        </Array>
                    </mxGeometry>
                </mxCell>
                <mxCell id="56" value="9. 执行各个可执行文件调起各个节点&lt;br&gt;节点处理配置文件数据" style="html=1;verticalAlign=bottom;endArrow=block;" edge="1" parent="1" source="54">
                    <mxGeometry width="80" relative="1" as="geometry">
                        <mxPoint x="1478" y="790" as="sourcePoint"/>
                        <mxPoint x="1683" y="790" as="targetPoint"/>
                    </mxGeometry>
                </mxCell>
                <mxCell id="58" value="获取配置Json文件" style="html=1;verticalAlign=bottom;endArrow=block;" edge="1" parent="1" source="27">
                    <mxGeometry width="80" relative="1" as="geometry">
                        <mxPoint x="815" y="670" as="sourcePoint"/>
                        <mxPoint x="1435" y="670" as="targetPoint"/>
                        <Array as="points">
                            <mxPoint x="915" y="670"/>
                        </Array>
                    </mxGeometry>
                </mxCell>
                <mxCell id="60" value="" style="html=1;points=[];perimeter=orthogonalPerimeter;rounded=1;" vertex="1" parent="1">
                    <mxGeometry x="1185" y="1160" width="10" height="40" as="geometry"/>
                </mxCell>
                <mxCell id="61" value="" style="html=1;points=[];perimeter=orthogonalPerimeter;rounded=1;" vertex="1" parent="1">
                    <mxGeometry x="1945" y="910" width="10" height="90" as="geometry"/>
                </mxCell>
                <mxCell id="62" value="&lt;span style=&quot;text-align: left&quot;&gt;10. 通过/dev/robot/{sn}/event/post&lt;/span&gt;上报属性数据" style="html=1;verticalAlign=bottom;endArrow=open;dashed=1;endSize=8;" edge="1" parent="1" source="61" target="52">
                    <mxGeometry relative="1" as="geometry">
                        <mxPoint x="1930" y="920" as="sourcePoint"/>
                        <mxPoint x="1850" y="920" as="targetPoint"/>
                    </mxGeometry>
                </mxCell>
                <mxCell id="65" value="12. 通过&lt;span style=&quot;text-align: left&quot;&gt;/dev/robot/{sn}/service/response响应服务请求&lt;/span&gt;" style="html=1;verticalAlign=bottom;endArrow=open;dashed=1;endSize=8;" edge="1" parent="1" target="64">
                    <mxGeometry relative="1" as="geometry">
                        <mxPoint x="1940" y="1000" as="sourcePoint"/>
                        <mxPoint x="1860" y="1000" as="targetPoint"/>
                    </mxGeometry>
                </mxCell>
                <mxCell id="68" value="14. 通过&lt;span style=&quot;text-align: left&quot;&gt;/dev/detection/{sn}/event/post上报节点状态&lt;/span&gt;" style="html=1;verticalAlign=bottom;endArrow=open;dashed=1;endSize=8;" edge="1" parent="1" source="66" target="60">
                    <mxGeometry relative="1" as="geometry">
                        <mxPoint x="1680" y="1080" as="sourcePoint"/>
                        <mxPoint x="1600" y="1080" as="targetPoint"/>
                    </mxGeometry>
                </mxCell>
                <mxCell id="69" value="治具" style="shape=umlLifeline;perimeter=lifelinePerimeter;whiteSpace=wrap;html=1;container=1;collapsible=0;recursiveResize=0;outlineConnect=0;rounded=1;" vertex="1" parent="1">
                    <mxGeometry x="2170" y="50" width="100" height="1150" as="geometry"/>
                </mxCell>
                <mxCell id="71" value="" style="html=1;points=[];perimeter=orthogonalPerimeter;rounded=1;" vertex="1" parent="69">
                    <mxGeometry x="45" y="990" width="10" height="40" as="geometry"/>
                </mxCell>
                <mxCell id="76" value="" style="html=1;points=[];perimeter=orthogonalPerimeter;rounded=1;" vertex="1" parent="69">
                    <mxGeometry x="45" y="690" width="10" height="40" as="geometry"/>
                </mxCell>
                <mxCell id="77" value="订阅：&lt;br&gt;/dev/jig/{sn}/service/request" style="edgeStyle=orthogonalEdgeStyle;html=1;align=left;spacingLeft=2;endArrow=block;entryX=1;entryY=0;" edge="1" target="76" parent="69">
                    <mxGeometry relative="1" as="geometry">
                        <mxPoint x="50" y="670" as="sourcePoint"/>
                        <Array as="points">
                            <mxPoint x="80" y="670"/>
                        </Array>
                    </mxGeometry>
                </mxCell>
                <mxCell id="70" value="13. 通过&lt;span style=&quot;text-align: left&quot;&gt;/dev/jig/{sn}/service/request发送服务请求&lt;/span&gt;" style="html=1;verticalAlign=bottom;endArrow=block;" edge="1" parent="1" source="64" target="71">
                    <mxGeometry width="80" relative="1" as="geometry">
                        <mxPoint x="1710" y="1040" as="sourcePoint"/>
                        <mxPoint x="1790" y="1040" as="targetPoint"/>
                    </mxGeometry>
                </mxCell>
                <mxCell id="72" value="14. 通过&lt;span style=&quot;text-align: left&quot;&gt;/dev/jig/{sn}/service/response响应服务请求&lt;/span&gt;" style="html=1;verticalAlign=bottom;endArrow=open;dashed=1;endSize=8;" edge="1" parent="1" source="71">
                    <mxGeometry relative="1" as="geometry">
                        <mxPoint x="2165.9999999999995" y="1080" as="sourcePoint"/>
                        <mxPoint x="1691" y="1080" as="targetPoint"/>
                    </mxGeometry>
                </mxCell>
                <mxCell id="78" value="15. 显示测试结果" style="html=1;verticalAlign=bottom;endArrow=open;dashed=1;endSize=8;" edge="1" parent="1" source="60">
                    <mxGeometry relative="1" as="geometry">
                        <mxPoint x="1100" y="1200" as="sourcePoint"/>
                        <mxPoint x="390" y="1200" as="targetPoint"/>
                    </mxGeometry>
                </mxCell>
            </root>
        </mxGraphModel>
    </diagram>
</mxfile>